<svg xmlns="http://www.w3.org/2000/svg">
 <metadata id="metadata8">image/svg+xml</metadata>

 <g>
  <title>background</title>
  <rect fill="none" id="canvas_background" height="234.5" width="234" y="-1" x="-1"/>
 </g>
 <g>
  <title>Layer 1</title>
  <g id="g10" transform="matrix(1.25,0,0,-1.25,0,232.5) ">
   <g id="g12" transform="scale(0.10000000149011612) ">
    <g id="g14" transform="scale(10) "/>
    <path fill="#05a857" fill-rule="nonzero" d="m1860,930c0,-513.621 -416.38,-930 -930,-930c-513.621,0 -930,416.379 -930,930c0,513.63 416.379,930 930,930c513.62,0 930,-416.37 930,-930" id="path16"/>
    <path fill="#ffffff" fill-rule="nonzero" d="m1132.51,727.5l63.38,22.781c256.45,92.629 366.7,236.106 337.14,438.799c-5.7,40.93 -17.09,79.62 -29.43,113.21c-71.79,-79.26 -370.73,-170.17 -370.73,-170.17l0,0.35l-22.9,63.49c-92.81,256.34 -236.279,366.7 -439.208,337.15c-40.586,-5.81 -79.512,-16.97 -112.981,-29.55c79.274,-71.56 169.703,-370.85 169.703,-370.85l0,0l-63.605,-22.79c-256.219,-92.79 -366.469,-236.268 -336.91,-439.15c5.699,-40.821 16.847,-79.27 29.547,-112.969c71.32,79.508 370.613,169.699 370.613,169.699l0.355,0l22.551,-63.359c92.914,-256.571 236.274,-366.711 439.205,-337.27c40.94,5.918 79.51,17.09 112.98,29.66c-79.28,71.449 -169.94,370.739 -169.94,370.739l0,0.23l0.23,0" id="path18"/>
   </g>
  </g>
 </g>
</svg>